<svg version="1.1" viewBox="0 0 994 994" xmlns="http://www.w3.org/2000/svg">
	<linearGradient id="a" x1="497" x2="497" y1="1003" y2="9.0126" gradientTransform="matrix(1 0 0 -1 0 1003)"
		gradientUnits="userSpaceOnUse">
		<stop stop-color="#00B2FF" offset="0" />
		<stop stop-color="#006AFF" offset="1" />
	</linearGradient>
	<path
		d="M497,0C217,0,0,205.1,0,482.1C0,627,59.4,752.2,156.1,838.7c8.1,7.3,13,17.4,13.4,28.3  l2.7,88.4c0.9,28.2,30,46.5,55.8,35.2l98.6-43.5c8.4-3.7,17.7-4.4,26.5-2c45.3,12.5,93.6,19.1,143.9,19.1  c280,0,497-205.1,497-482.1S777,0,497,0z"
		fill="url(#a)" />
	<path
		d="m198.6 623.1 146-231.6c23.2-36.8 73-46 107.8-19.9l116.1 87.1c10.7 8 25.3 7.9 35.9-0.1l156.8-119c20.9-15.9 48.3 9.2 34.2 31.4l-145.9 231.5c-23.2 36.8-73 46-107.8 19.9l-116.1-87.1c-10.7-8-25.3-7.9-35.9 0.1l-156.9 119.1c-20.9 15.9-48.3-9.2-34.2-31.4z"
		fill="#fff" />
</svg>