<svg viewBox="0 0 990.83 1e3" xmlns="http://www.w3.org/2000/svg">
  <defs>
    <linearGradient id="f" x1="8.393" x2="11.125" y1="1.106" y2="18.354" gradientUnits="userSpaceOnUse">
      <stop stop-color="#00b7f0" offset=".012" />
      <stop stop-color="#009de5" offset=".339" />
      <stop stop-color="#0082d9" offset=".755" />
      <stop stop-color="#0078d4" offset="1" />
    </linearGradient>
    <linearGradient id="e" x1="14.379" x2="29.546" y1="26.645" y2="17.889" gradientUnits="userSpaceOnUse">
      <stop stop-color="#0078d4" offset="0" />
      <stop stop-color="#007ad5" offset=".37" />
      <stop stop-color="#0082d9" offset=".573" />
      <stop stop-color="#0090df" offset=".735" />
      <stop stop-color="#00a3e7" offset=".875" />
      <stop stop-color="#00bcf2" offset="1" />
    </linearGradient>
    <linearGradient id="d" x1="10.45" x2="24.291" y1="6.689" y2="30.662" gradientUnits="userSpaceOnUse">
      <stop stop-color="#00b7f0" offset="0" />
      <stop stop-color="#007cc1" offset="1" />
    </linearGradient>
  </defs>
  <g transform="translate(-381.73 -337.14)">
    <path transform="matrix(33.333 0 0 33.333 348.39 303.81)"
      d="m18.518 9.73a8.759 8.73 0 0 1-8.759 8.73 8.759 8.73 0 0 1-8.759-8.73 8.759 8.73 0 0 1 8.759-8.73 8.759 8.73 0 0 1 8.759 8.73"
      fill="url(#f)" />
    <path transform="matrix(33.333 0 0 33.333 348.39 303.81)"
      d="m30.725 22.267a8.762 8.733 0 0 1-8.762 8.733 8.762 8.733 0 0 1-8.762-8.733 8.762 8.733 0 0 1 8.762-8.733 8.762 8.733 0 0 1 8.762 8.733"
      fill="url(#e)" />
    <path transform="matrix(33.333 0 0 33.333 348.39 303.81)"
      d="m1.032 10.477a8.758 8.758 0 1 0 9.817-9.41 15.915 15.915 0 0 0-9.817 9.41z" fill-rule="evenodd"
      opacity=".05" />
    <path transform="matrix(33.333 0 0 33.333 348.39 303.81)"
      d="m30.702 21.64a8.761 8.761 0 1 0-9.533 9.324 15.915 15.915 0 0 0 9.533-9.325z" fill-rule="evenodd"
      opacity=".05" />
    <path transform="matrix(33.333 0 0 33.333 348.39 303.81)"
      d="m1.442 12.473a8.755 8.755 0 1 0 11.398-10.917 14.893 14.893 0 0 0-11.398 10.917z" fill-rule="evenodd"
      opacity=".1" />
    <path transform="matrix(33.333 0 0 33.333 348.39 303.81)"
      d="m30.304 19.588a8.758 8.758 0 1 0-11.192 10.939 14.893 14.893 0 0 0 11.192-10.939z" fill-rule="evenodd"
      opacity=".1" />
    <path transform="matrix(33.333 0 0 33.333 348.39 303.81)"
      d="m1.764 13.301a8.753 8.753 0 1 0 11.894-11.39 14.387 14.387 0 0 0-11.894 11.39z" fill-rule="evenodd"
      opacity=".1" />
    <path transform="matrix(33.333 0 0 33.333 348.39 303.81)"
      d="m29.981 18.743a8.756 8.756 0 1 0-11.713 11.444 14.386 14.386 0 0 0 11.713-11.444z" fill-rule="evenodd"
      opacity=".1" />
    <path transform="matrix(33.333 0 0 33.333 348.39 303.81)"
      d="m29.737 16.065a13.873 13.827 0 0 1-13.873 13.827 13.873 13.827 0 0 1-13.873-13.827 13.873 13.827 0 0 1 13.873-13.827 13.873 13.827 0 0 1 13.873 13.827"
      fill="url(#d)" />
    <path transform="matrix(33.333 0 0 33.333 348.39 303.81)"
      d="m11.963 15.585a4.358 4.358 0 0 1-1.367-1.442 3.986 3.986 0 0 1-0.468-1.993 3.582 3.582 0 0 1 0.844-2.412 5.08 5.08 0 0 1 2.2-1.47 8.495 8.495 0 0 1 2.88-0.485 11.184 11.184 0 0 1 1.916 0.147 6.918 6.918 0 0 1 1.329 0.343 2.576 2.576 0 0 1 1.04 0.664 1.344 1.344 0 0 1 0.321 0.893 1.294 1.294 0 0 1-0.338 0.931 1.124 1.124 0 0 1-0.849 0.354 1.529 1.529 0 0 1-0.631-0.142 11.434 11.434 0 0 0-1.503-0.55 5.455 5.455 0 0 0-1.448-0.18 3.305 3.305 0 0 0-1.814 0.464 1.509 1.509 0 0 0-0.724 1.355 1.363 1.363 0 0 0 0.376 0.953 3.426 3.426 0 0 0 1.013 0.725q0.637 0.316 1.9 0.838a1.97 1.97 0 0 1 0.272 0.109 13.497 13.497 0 0 1 2.352 1.209 4.742 4.742 0 0 1 1.448 1.486 3.92 3.92 0 0 1 0.523 2.064 4.151 4.151 0 0 1-0.724 2.488 4.304 4.304 0 0 1-2.025 1.503 8.537 8.537 0 0 1-3.044 0.496 9.59 9.59 0 0 1-4.149-0.785 2.258 2.258 0 0 1-0.854-0.664 1.493 1.493 0 0 1-0.278-0.904 1.181 1.181 0 0 1 0.365-0.92 1.345 1.345 0 0 1 0.941-0.332 2.407 2.407 0 0 1 1.1 0.283q0.632 0.316 0.997 0.474a5.008 5.008 0 0 0 0.86 0.272 4.92 4.92 0 0 0 1.105 0.114 2.95 2.95 0 0 0 1.857-0.495 1.635 1.635 0 0 0 0.626-1.356 1.44 1.44 0 0 0-0.392-0.99 4.167 4.167 0 0 0-1.154-0.84q-0.763-0.402-2.146-0.98a13.291 13.291 0 0 1-2.357-1.225"
      fill="#fff" fill-rule="evenodd" />
  </g>
</svg>