<svg viewBox="13 11 149 149" xmlns="http://www.w3.org/2000/svg">
   <defs>
      <clipPath id="c">
         <path
            d="m439.74 534.04c-8e-3 35.469 9.2578 70.102 26.879 100.62l-28.562 104.3 106.73-27.984c29.406 16.027 62.516 24.484 96.211 24.496h0.0898c110.96 0 201.29-90.297 201.34-201.28 0.0234-53.777-20.902-104.35-58.918-142.39-38.012-38.047-88.562-59.008-142.43-59.031-110.98 0-201.3 90.289-201.34 201.27m201.35 201.44h4e-3 -4e-3s-4e-3 0 0 0" />
      </clipPath>
      <linearGradient id="b" x1="-1.1128e-7" x2="1" gradientTransform="matrix(0 -406.19 406.19 0 640.24 738.97)"
         gradientUnits="userSpaceOnUse">
         <stop stop-color="#1faf37" offset="0" />
         <stop stop-color="#5fd569" offset="1" />
      </linearGradient>
      <clipPath id="d">
         <path
            d="m432.55 533.98c-0.0117 36.746 9.5898 72.617 27.84 104.23l-29.59 108.04 110.56-28.992c30.461 16.613 64.762 25.371 99.664 25.383h0.0898c114.95 0 208.52-93.543 208.57-208.5 0.0156-55.715-21.656-108.1-61.031-147.51-39.383-39.41-91.746-61.121-147.54-61.148-114.96 0-208.52 93.531-208.57 208.49m65.844 98.793-4.1289-6.5547c-17.355-27.594-26.516-59.484-26.5-92.227 0.0352-95.547 77.797-173.28 173.42-173.28 46.305 0.0195 89.824 18.066 122.55 50.82 32.73 32.754 50.742 76.297 50.727 122.6-0.0391 95.555-77.805 173.3-173.35 173.3h-0.0664c-31.113-0.0156-61.621-8.3672-88.23-24.16l-6.3359-3.75-65.609 17.199zm142.72 109.87s-4e-3 0 0 0" />
      </clipPath>
      <linearGradient id="a" x1="8.3254e-7" x2="1" gradientTransform="matrix(0 -420.76 420.76 0 640.25 746.25)"
         gradientUnits="userSpaceOnUse">
         <stop stop-color="#f9f9f9" offset="0" />
         <stop stop-color="#fefefe" offset="1" />
      </linearGradient>
   </defs>
   <g transform="translate(10.203 27.587)">
      <g transform="matrix(.35278 0 0 .35278 -148.71 -130.82)" clip-path="url(#clip6)">
         <g clip-path="url(#c)">
            <path d="m438.06 738.97h404.39v-406.19h-404.39z" fill="url(#b)" />
         </g>
      </g>
      <g transform="matrix(.35278 0 0 .35278 -148.71 -130.82)" clip-path="url(#clip10)">
         <g clip-path="url(#d)">
            <path d="m430.8 746.25h418.9v-420.76h-418.9z" fill="url(#a)" />
         </g>
      </g>
      <path
         d="m59.072 26.808c-1.378-3.0606-2.8277-3.1226-4.1369-3.1764-1.0721-0.04548-2.2986-0.04272-3.5236-0.04272-1.2265 0-3.2177 0.46026-4.9017 2.2999-1.6853 1.8397-6.4354 6.2866-6.4354 15.332 0 9.0454 6.5884 17.785 7.5062 19.013 0.91915 1.2265 12.718 20.381 31.405 27.75 15.529 6.124 18.689 4.9058 22.061 4.5999 3.3707-0.30592 10.877-4.4469 12.408-8.7395 1.5324-4.2926 1.5324-7.9706 1.0735-8.7395-0.46026-0.76757-1.6853-1.2265-3.525-2.1456-1.8383-0.91915-10.877-5.3675-12.562-5.9807-1.6853-0.61323-2.9104-0.91915-4.1369 0.92053-1.2251 1.8397-4.746 5.9793-5.8195 7.2058-1.0721 1.2278-2.1442 1.3808-3.9839 0.46164-1.8383-0.92191-7.7597-2.8608-14.784-9.124-5.4653-4.8727-9.1543-10.891-10.228-12.73-1.0721-1.8397-0.11438-2.8346 0.80753-3.751 0.82544-0.82407 1.8383-2.147 2.7588-3.2205 0.9164-1.0735 1.2237-1.8397 1.8355-3.0648 0.61323-1.2278 0.3073-2.3013-0.15296-3.2205-0.45889-0.91915-4.0321-10.011-5.6665-13.647"
         fill="#fff" fill-rule="evenodd" />
   </g>
</svg>